<svg id="Consulting_" data-name="Consulting " xmlns="http://www.w3.org/2000/svg" width="14.091" height="13.088" viewBox="0 0 14.091 13.088">
  <path id="Subtraction_17" data-name="Subtraction 17" d="M6.544,13.088A6.514,6.514,0,0,1,2.885,11.97,6.563,6.563,0,0,1,.514,9.091a6.535,6.535,0,0,1,.6-6.206A6.563,6.563,0,0,1,4,.514a6.535,6.535,0,0,1,6.206.6,6.576,6.576,0,0,1,1.6,1.532c-.115-.01-.234-.016-.351-.016a3.887,3.887,0,0,0-2.457.872l-.08-.063a3.913,3.913,0,0,0-.709-.432,3.863,3.863,0,0,0-1.662-.371,3.905,3.905,0,0,0,0,7.81,3.868,3.868,0,0,0,1.6-.341A3.907,3.907,0,0,0,9,9.578a3.887,3.887,0,0,0,2.451.867c.12,0,.241-.006.359-.016-.085.115-.174.228-.265.335a6.537,6.537,0,0,1-5,2.325Zm6.4-5.172H10.2a3.909,3.909,0,0,0,.038-2.639h2.727a6.618,6.618,0,0,1-.022,2.639Zm-.735-3.905H10.694a2.655,2.655,0,0,1,1.515,0Z" transform="translate(0 0)" fill="#fff"/>
  <circle id="Ellipse_881" data-name="Ellipse 881" cx="2.639" cy="2.639" r="2.639" transform="translate(8.813 3.9)" fill="#fff"/>
</svg>
