<svg xmlns="http://www.w3.org/2000/svg" width="16.668" height="18.488" viewBox="0 0 16.668 18.488">
  <path id="Energy" d="M8435.92,22181.09h-3.53l5.14-8.9h4.533l-.774,1.088.112.064-1.621,2.271,0,.006v-.006l-.112-.057-2.133,2.992h4.533l-6.589,7.264a.437.437,0,0,1,.051.016l-1.993,2.188v0l-.04-.018-2.433,2.68Zm-.312,7.619,2.467-2.7a5.578,5.578,0,0,0,4.65-5.486,5.536,5.536,0,0,0-1.381-3.658l1.643-2.3a8.332,8.332,0,0,1-5.819,14.295A8.511,8.511,0,0,1,8435.608,22188.709Zm-4.35-2.311a8.269,8.269,0,0,1-2.428-5.877,8.34,8.34,0,0,1,6.516-8.135l-1.916,3.33-.457.785.095.277a5.53,5.53,0,0,0-.445,6.934l-1.358,2.686Z" transform="translate(-8428.831 -22172.191)" fill="#fafafd"/>
</svg>
