<svg id="Engineering_" data-name="Engineering " xmlns="http://www.w3.org/2000/svg" width="13.088" height="14.038" viewBox="0 0 13.088 14.038">
  <path id="Subtraction_13" data-name="Subtraction 13" d="M6.544,13.088a6.585,6.585,0,0,1-1.372-.144V10.2a3.91,3.91,0,0,0,2.639.038v2.727A6.6,6.6,0,0,1,6.544,13.088Zm2.533-.508h0V9.514a3.928,3.928,0,0,0,1-1.308,3.863,3.863,0,0,0,.371-1.662,3.905,3.905,0,0,0-7.81,0A3.9,3.9,0,0,0,3.905,9.42v3.114a6.535,6.535,0,1,1,5.186.04l-.012.005h0Z" transform="translate(0 0)" fill="#fff"/>
  <rect id="Rectangle_33697" data-name="Rectangle 33697" width="2.639" height="8.233" transform="translate(5.172 5.805)" fill="#fff"/>
</svg>
