<svg xmlns="http://www.w3.org/2000/svg" width="31.681" height="32.341" viewBox="0 0 31.681 32.341">
  <path id="_" data-name="?" d="M20.341,31.941v-8.4H11.5v8.4Zm-.352-10.912v-.352c0-1.5.616-1.848,2.376-2.156l5.412-.836a6.08,6.08,0,0,0,5.544-6.38v-4.8c0-5.06-3.344-6.908-11.4-6.908h-7.04C5.468-.4,1.64,1.536,1.64,8.092a20.387,20.387,0,0,0,.22,3.124H9.912V10.6c0-3.7,1.232-4.62,5.016-4.62h4.84c3.784,0,5.456.616,5.456,2.86,0,1.54-.792,2.288-2.684,2.64L15.9,12.713c-2.992.572-4.18,2.552-4.18,6.292,0,.616.044,1.32.088,2.024Z" transform="translate(-1.64 0.4)" fill="#ffe800"/>
</svg>
