<svg xmlns="http://www.w3.org/2000/svg" width="248" height="248" viewBox="0 0 248 248">
  <g id="Icon" transform="translate(-1101.907 -6619)">
    <path id="Subtraction_93" data-name="Subtraction 93" d="M124,248a124.916,124.916,0,0,1-24.99-2.519A123.322,123.322,0,0,1,54.67,226.823,124.362,124.362,0,0,1,9.745,172.266,123.374,123.374,0,0,1,2.519,148.99a125.208,125.208,0,0,1,0-49.981A123.322,123.322,0,0,1,21.177,54.67,124.361,124.361,0,0,1,75.734,9.745,123.373,123.373,0,0,1,99.01,2.519a125.208,125.208,0,0,1,49.981,0A123.323,123.323,0,0,1,193.33,21.177a124.362,124.362,0,0,1,44.926,54.556,123.374,123.374,0,0,1,7.225,23.276,125.208,125.208,0,0,1,0,49.981,123.322,123.322,0,0,1-18.658,44.339,124.363,124.363,0,0,1-54.557,44.926,123.378,123.378,0,0,1-23.276,7.225A124.913,124.913,0,0,1,124,248ZM79.881,57.811A22.052,22.052,0,0,0,57.811,79.881v88.285a22.052,22.052,0,0,0,22.071,22.071h88.285a22.053,22.053,0,0,0,22.071-22.071V79.881a22.052,22.052,0,0,0-22.071-22.071Zm82.767,104.838H85.4V85.4h77.249v77.249Zm-59.7-60.7a1,1,0,0,0-1,1v42.142a1,1,0,0,0,1,1h42.142a1,1,0,0,0,1-1V102.953a1,1,0,0,0-1-1Z" transform="translate(1101.907 6619)" fill="#ffe800"/>
  </g>
</svg>
