<svg xmlns="http://www.w3.org/2000/svg" width="139.243" height="104.449" viewBox="0 0 139.243 104.449">
  <g id="_" data-name="&quot;" transform="translate(0)" opacity="0.5">
    <path id="Path_57901" data-name="Path 57901" d="M18.1-125.206c-1.853-37.468,3.8-44.634,19.373-52.254S58-181.218,77.321-185.025v5.451c-14.383,4.512-25.093,11.733-30.028,22.732-2.538,5.781-2.545,14.434-2.122,20.639H78.379v55.628H18.1Z" transform="translate(-17.758 185.025)" fill="#ffe800"/>
    <path id="Path_57902" data-name="Path 57902" d="M18.1-125.206c-1.853-37.468,3.8-44.634,19.373-52.254S58-181.218,77.321-185.025v5.451c-14.383,4.512-25.093,11.733-30.028,22.732-2.538,5.781-2.545,14.434-2.122,20.639H78.379v55.628H18.1Z" transform="translate(60.864 185.025)" fill="#ffe800"/>
  </g>
</svg>
