<svg xmlns="http://www.w3.org/2000/svg" width="139.242" height="104.449" viewBox="0 0 139.242 104.449">
  <g id="_" data-name="&quot;" transform="translate(-1480.758 -7920.869)" opacity="0.5">
    <path id="Path_57901" data-name="Path 57901" d="M78.04-140.4c1.853,37.468-3.8,44.634-19.373,52.254s-20.533,3.758-39.851,7.566v-5.45C33.2-90.539,43.909-97.76,48.844-108.759c2.538-5.781,2.545-14.434,2.122-20.639H17.758v-55.628H78.04Z" transform="translate(1541.621 8105.895)" fill="#ffe800"/>
    <path id="Path_57902" data-name="Path 57902" d="M78.04-140.4c1.853,37.468-3.8,44.634-19.373,52.254s-20.533,3.758-39.851,7.566v-5.45C33.2-90.539,43.909-97.76,48.844-108.759c2.538-5.781,2.545-14.434,2.122-20.639H17.758v-55.628H78.04Z" transform="translate(1462.999 8105.895)" fill="#ffe800"/>
  </g>
</svg>
