<svg xmlns="http://www.w3.org/2000/svg" width="608.124" height="606.043" viewBox="0 0 608.124 606.043">
  <g id="Shapes" transform="translate(-808 -6710.415)">
    <path id="Subtraction_79" data-name="Subtraction 79" d="M71.036,68.484h-.366a79.952,79.952,0,0,1-14.6-1.3,69.353,69.353,0,0,1-13.427-3.9,72.12,72.12,0,0,1-12.022-6.217,68.007,68.007,0,0,1-10.405-8.246A65.343,65.343,0,0,1,11.7,38.742a67.458,67.458,0,0,1-6.384-11.7A65.988,65.988,0,0,1,1.328,14.033,72.447,72.447,0,0,1,0,.043V0H33.893V.043a47.563,47.563,0,0,0,2.556,16,34.491,34.491,0,0,0,7.358,12.254A32.578,32.578,0,0,0,55.32,36.117a39.519,39.519,0,0,0,14.974,2.74c.276,0,.517,0,.741-.006V68.484Z" transform="translate(824.964 7132.287)" fill="#f3f3f6"/>
    <rect id="Rectangle_33881" data-name="Rectangle 33881" width="94.124" height="28.322" transform="translate(1322 7041.799)" fill="#f3f3f6"/>
    <rect id="Rectangle_33884" data-name="Rectangle 33884" width="155.124" height="40" transform="translate(991.5 6765.116) rotate(90)" fill="#f3f3f6"/>
    <rect id="Rectangle_33882" data-name="Rectangle 33882" width="94.124" height="94.322" transform="translate(808 6975.799)" fill="#f3f3f6"/>
    <rect id="Rectangle_33883" data-name="Rectangle 33883" width="94.124" height="94.322" transform="translate(1161.876 7180.254)" fill="#f3f3f6"/>
    <path id="Path_58122" data-name="Path 58122" d="M3586.732-19830.441h39.222l-45.067-117.887H3539Z" transform="translate(-2393.954 26739.904)" fill="#f3f3f6"/>
    <circle id="Ellipse_1094" data-name="Ellipse 1094" cx="36.5" cy="36.5" r="36.5" transform="translate(935 7216.292)" fill="#f3f3f6"/>
    <path id="Polygon_24" data-name="Polygon 24" d="M56,0l56,89.043H0Z" transform="translate(808 7227.415)" fill="#f3f3f6"/>
    <path id="Polygon_25" data-name="Polygon 25" d="M28,0,56,44.522H0Z" transform="translate(1200 6710.415)" fill="#f3f3f6"/>
    <path id="Path_58123" data-name="Path 58123" d="M0,0H53.57L0,88.584Z" transform="translate(1032 7238.076) rotate(-90)" fill="#f3f3f6"/>
    <path id="Path_58120" data-name="Path 58120" d="M80.873-152.29a73.948,73.948,0,0,0,28.022-5.2,69.435,69.435,0,0,0,22.427-14.464,65.617,65.617,0,0,0,14.9-21.777,68.325,68.325,0,0,0,5.316-27,68.286,68.286,0,0,0-5.247-26.977,65.85,65.85,0,0,0-14.742-21.614,67.2,67.2,0,0,0-22.311-14.371,74.954,74.954,0,0,0-28-5.108,74.954,74.954,0,0,0-28,5.108,67.462,67.462,0,0,0-22.334,14.371,65.428,65.428,0,0,0-14.765,21.707,68.964,68.964,0,0,0-5.247,27.07,68.6,68.6,0,0,0,5.247,26.931,66.109,66.109,0,0,0,14.742,21.753,67.308,67.308,0,0,0,22.241,14.44A73.61,73.61,0,0,0,80.873-152.29Zm.371-29.624a37.31,37.31,0,0,1-19.292-4.829,32.672,32.672,0,0,1-12.676-13.581A44.2,44.2,0,0,1,44.8-220.731a46,46,0,0,1,2.554-15.74,34.6,34.6,0,0,1,7.383-12.165,32.446,32.446,0,0,1,11.515-7.824,39.527,39.527,0,0,1,15-2.716,37.791,37.791,0,0,1,19.246,4.736,32.2,32.2,0,0,1,12.676,13.4,43.631,43.631,0,0,1,4.481,20.314,47.445,47.445,0,0,1-2.554,16,34.359,34.359,0,0,1-7.359,12.258,32.575,32.575,0,0,1-11.515,7.824A39.279,39.279,0,0,1,81.244-181.914Z" transform="translate(1256.582 7063.224)" fill="#f3f3f6"/>
  </g>
</svg>
